<?xml version="1.0" encoding="UTF-8"?>
<svg id="Layer_2" data-name="Layer 2" xmlns="http://www.w3.org/2000/svg" viewBox="0 0 368.74 368.74">
  <defs>
    <style>
      .cls-1 {
        fill: #fff;
      }
    </style>
  </defs>
  <g id="Layer_1-2" data-name="Layer 1">
    <g>
      <path class="cls-1" d="M287.92,193.6h-82.4s91.79,125.36,91.79,125.36h68.87c-8.08,28.72-34.48,49.77-65.79,49.77H68.32C30.58,368.74,0,338.14,0,300.42V68.32C0,30.6,30.58,0,68.32,0h232.08c37.74,0,68.33,30.6,68.33,68.32v62.32s-80.52-80.57-80.52-80.57l-.03.03-.26.28v-.55s-157.99,0-157.99,0l-97.33,102.42v166.72s238.8-251.27,238.8-251.27l16.52-17.31v143.22Z"/>
      <g>
        <polygon class="cls-1" points="238.84 16.01 238.8 16.05 238.45 16.42 238.45 15.62 238.84 16.01"/>
        <polygon class="cls-1" points="239.16 15.69 238.84 16.01 238.8 16.05 238.45 16.42 238.45 15.69 239.16 15.69"/>
      </g>
    </g>
  </g>
</svg>