<?xml version="1.0" encoding="UTF-8"?>
<svg id="Layer_2" data-name="Layer 2" xmlns="http://www.w3.org/2000/svg" viewBox="0 0 737.47 198.93">
  <defs>
    <style>
      .cls-1 {
        fill: #fff;
      }
    </style>
  </defs>
  <g id="Layer_1-2" data-name="Layer 1">
    <g>
      <path class="cls-1" d="M155.33,104.44h-44.45s49.52,67.63,49.52,67.63h37.15c-4.36,15.49-18.6,26.85-35.49,26.85H36.86C16.5,198.93,0,182.42,0,162.07V36.86C0,16.51,16.5,0,36.86,0h125.2c20.36,0,36.87,16.51,36.87,36.86v33.62s-43.44-43.46-43.44-43.46l-.02.02-.14.15v-.3s-85.23,0-85.23,0l-52.51,55.25v89.94S146.42,36.52,146.42,36.52l8.91-9.34v77.27Z"/>
      <g>
        <polygon class="cls-1" points="128.85 8.64 128.83 8.66 128.64 8.86 128.64 8.43 128.85 8.64"/>
        <polygon class="cls-1" points="129.02 8.46 128.85 8.64 128.83 8.66 128.64 8.86 128.64 8.46 129.02 8.46"/>
      </g>
      <g>
        <path class="cls-1" d="M320.66,18.66h-5.46s-19.91,0-19.91,0l-60.71,166h26.79s14.31-40.08,14.31-40.08h84.49s14.31,40.08,14.31,40.08h27.98s-60.71-166-60.71-166h-21.1ZM284.07,121.11l33.86-94.81,33.86,94.81h-67.72Z"/>
        <path class="cls-1" d="M503.73,70.72c-10.04-6.39-21.46-9.6-34.27-9.6-11.7,0-22.37,2.77-32.02,8.3-9.65,5.53-17.23,13.08-22.77,22.64-5.53,9.56-8.29,20.28-8.29,32.13s2.8,22.33,8.42,31.9c5.61,9.56,13.31,17.11,23.12,22.64,9.8,5.53,20.7,8.3,32.72,8.3,12.81,0,24.23-3.08,34.27-9.26,10.04-6.16,17.75-14.37,23.13-24.66l-20.88-9.24c-3.48,6.79-8.34,12.09-14.58,15.89-6.25,3.78-13.32,5.69-21.23,5.69-7.74,0-14.7-1.82-20.87-5.46-6.16-3.64-10.99-8.57-14.46-14.82-2.17-3.9-3.42-8.2-4.23-12.68h100.04c1.42-12.97-.4-24.91-5.46-35.81-5.06-10.92-12.61-19.56-22.64-25.97ZM449.91,88.15c5.93-3.64,12.45-5.46,19.56-5.46s13.52,1.66,19.21,4.97c5.69,3.33,10.23,7.91,13.63,13.76,2.09,3.61,3.39,7.53,4.31,11.62h-74.52c.85-3.49,2.11-6.82,3.8-9.96,3.4-6.32,8.06-11.29,14-14.93Z"/>
        <path class="cls-1" d="M602.25,62.9c-6.8,2.13-12.64,6.75-17.54,13.87-3.56,5.17-6.16,12.25-8.3,20.25v-33.52s-24.89,0-24.89,0v121.16s24.89,0,24.89,0v-68.53c0-7.58,2.1-14.1,6.29-19.56,4.19-5.46,9.92-9.13,17.19-11.02,7.27-1.89,15.26-1.66,23.95.7v-23.7c-7.58-1.89-14.78-1.78-21.58.36Z"/>
        <path class="cls-1" d="M723.84,72.61c-9.1-7.65-20.99-11.49-35.69-11.49-9.33,0-17.75,1.53-25.25,4.63-7.51,3.08-13.72,7.42-18.62,13.04-4.91,5.6-8.06,12.12-9.48,19.56l24.66,5.93c1.58-7.42,4.9-13,9.96-16.71,5.05-3.71,11.3-5.58,18.73-5.58s13.16,1.75,17.67,5.22c4.5,3.48,6.75,8.14,6.75,14,0,3.78-1.11,6.59-3.32,8.41-2.22,1.82-5.53,2.97-9.96,3.44l-23.47,2.38c-12.97,1.42-23.64,5.1-32.02,11.02-8.38,5.93-12.56,14.82-12.56,26.68,0,6.65,1.58,12.57,4.74,17.78,3.16,5.22,7.59,9.22,13.28,11.98,5.69,2.77,11.85,4.16,18.5,4.16,12.33,0,22.44-3.48,30.35-10.45,6.4-5.64,11.17-13.84,14.46-24.36v32.43s24.9,0,24.9,0v-79.43c0-14.07-4.55-24.95-13.63-32.62ZM694.43,162.02c-5.62,3.24-11.82,4.86-18.62,4.86-5.85,0-10.59-1.39-14.23-4.16-3.64-2.76-5.46-6.59-5.46-11.49s1.78-8.5,5.34-11.28c3.56-2.76,8.33-4.54,14.35-5.33l23-2.85c4.74-.47,8.29-1.46,10.67-2.95,1.31-.84,2.3-1.93,3.08-3.17v6.85c0,5.84-1.62,11.42-4.86,16.71-3.24,5.3-7.66,9.56-13.27,12.81Z"/>
      </g>
    </g>
  </g>
</svg>